<svg width="48" height="48" viewBox="0 0 48 48" fill="none" xmlns="http://www.w3.org/2000/svg">
<path d="M24 48C37.2548 48 48 37.2548 48 24C48 10.7452 37.2548 0 24 0C10.7452 0 0 10.7452 0 24C0 37.2548 10.7452 48 24 48Z" fill="#91DE6C"/>
<path d="M47.9519 22.4995L32.3301 6.87482L15.3716 39.169L24.2 47.9974C37.3625 47.8898 47.9999 37.1879 47.9999 24C47.9999 23.4959 47.9825 22.996 47.9519 22.4995Z" fill="#3F9E28"/>
<path d="M33.5264 16.0173C35.0041 16.0173 36.2021 14.8194 36.2021 13.3415C36.2021 11.8637 35.0042 10.6658 33.5264 10.6658C33.4888 10.6658 33.4522 10.6699 33.4151 10.6715C33.4872 10.3704 33.5264 10.0565 33.5264 9.7333C33.5264 7.51673 31.7296 5.71989 29.513 5.71989C28.1464 5.71989 26.9402 6.40352 26.2154 7.44676C25.7435 7.02946 25.125 6.77395 24.4455 6.77395C23.8526 6.77395 23.3065 6.96918 22.8628 7.29564C22.1294 6.33791 20.9747 5.71973 19.6751 5.71973C17.982 5.71973 16.5349 6.76878 15.9452 8.25176C15.5967 8.08562 15.2084 7.98995 14.7967 7.98995C13.3192 7.99027 12.1213 9.18817 12.1213 10.666C12.1213 12.1438 13.3192 13.3417 14.7971 13.3417L33.5264 16.0173Z" fill="white"/>
<path d="M33.5262 10.666C33.4885 10.666 33.452 10.6701 33.4148 10.6717C33.4869 10.3706 33.5262 10.0568 33.5262 9.73369C33.5262 7.51712 31.7293 5.72028 29.5128 5.72028C28.1463 5.72028 26.94 6.40391 26.2151 7.44714C25.7432 7.02969 25.1247 6.77434 24.4453 6.77434C24.3027 6.77434 24.1633 6.78613 24.0269 6.80795V14.6602L33.5262 16.0173C35.0038 16.0173 36.2019 14.8194 36.2019 13.3416C36.2019 11.8638 35.004 10.666 33.5262 10.666Z" fill="#D0D5D9"/>
<path d="M38.5101 18.6666H33.3332V13.3333H14.6665V37.3805C14.6665 38.8273 15.8394 40 17.286 40H30.7135C32.1603 40 33.333 38.8271 33.333 37.3805V32H38.5099C39.3327 32 39.9997 31.333 39.9997 30.5102V20.1564C39.9999 19.3336 39.3329 18.6666 38.5101 18.6666ZM38.1175 28.6112C38.1175 29.2108 37.6314 29.697 37.0318 29.697H33.8822V20.9697H37.0318C37.6314 20.9697 38.1175 21.4558 38.1175 22.0554V28.6112Z" fill="#F0DEB4"/>
<path d="M38.5101 18.6666H33.3332V13.3333H24.0269V40H30.7137C32.1605 40 33.3332 38.8271 33.3332 37.3805V32H38.5101C39.3329 32 39.9999 31.333 39.9999 30.5102V20.1564C39.9999 19.3336 39.3329 18.6666 38.5101 18.6666ZM38.1175 28.6112C38.1175 29.2108 37.6314 29.697 37.0318 29.697H33.8822V20.9697H37.0318C37.6314 20.9697 38.1175 21.4558 38.1175 22.0554V28.6112Z" fill="#D8C49C"/>
<path d="M18.0709 38.4415H29.929C31.2066 38.4415 32.2424 37.4057 32.2424 36.1282V21.1948H15.7576V36.1282C15.7576 37.4059 16.7934 38.4415 18.0709 38.4415Z" fill="#FFA800"/>
<path d="M24.0269 21.1948V38.4415H29.9289C31.2065 38.4415 32.2423 37.4057 32.2423 36.1282V21.1948H24.0269Z" fill="#CE8400"/>
</svg>
