<svg width="48" height="48" viewBox="0 0 48 48" fill="none" xmlns="http://www.w3.org/2000/svg">
<path d="M24 48C37.2548 48 48 37.2548 48 24C48 10.7452 37.2548 0 24 0C10.7452 0 0 10.7452 0 24C0 37.2548 10.7452 48 24 48Z" fill="#FFCC16"/>
<path d="M24.3365 24.7478H23.575V36.0885H24.3365V24.7478Z" fill="#D1D2D3"/>
<path d="M25.1773 24.7478H24.3364V36.0885H25.1773V24.7478Z" fill="#E3E4E5"/>
<path d="M17.2146 37.9181C18.7816 37.9181 21.5371 37.9181 24.3365 37.9181V35.6147C20.3993 35.6217 17.2146 36.6506 17.2146 37.9181Z" fill="#EDEDED"/>
<path d="M24.3766 35.6147C24.3635 35.6147 24.3503 35.6147 24.3372 35.6147V37.9181C27.0394 37.9181 29.7832 37.9181 31.5387 37.9181C31.5383 36.6462 28.332 35.6147 24.3766 35.6147Z" fill="white"/>
<path d="M38.3271 14.588H24.3762H24.3364V26.1581H25.2215L38.3271 14.588Z" fill="white"/>
<path d="M10.425 14.588L23.5314 26.1581H24.3365V14.588H10.425Z" fill="#EDEDED"/>
<path d="M17.7576 19.5819L23.7227 24.8483H24.3367V19.5819H17.7576Z" fill="#E05A13"/>
<path d="M30.9948 19.5819H24.3364V24.8483H25.0301L30.9948 19.5819Z" fill="#F26C25"/>
<path d="M29.5233 17.5251C29.3677 17.6168 29.3158 17.8166 29.4071 17.9725C29.4988 18.1278 29.6986 18.1796 29.8542 18.0883L36.6824 14.0781C36.8377 13.9868 36.8899 13.787 36.7986 13.631C36.7073 13.4754 36.5075 13.4239 36.3515 13.5149L29.5233 17.5251Z" fill="#EDEDED"/>
<path d="M27.2232 19.2551C27.8477 20.3185 29.3317 20.6063 30.5379 19.8979C31.7441 19.1896 32.2156 17.7533 31.5912 16.69C30.9667 15.6266 29.4826 15.3388 28.2765 16.0472C27.0703 16.7555 26.5987 18.1918 27.2232 19.2551Z" fill="#67BC47"/>
</svg>
