<svg width="48" height="48" viewBox="0 0 48 48" fill="none" xmlns="http://www.w3.org/2000/svg">
<path d="M47.0559 17.3168C44.1615 7.31419 34.9354 0 24 0C10.7451 0 0 10.7452 0 24C0 34.9355 7.31418 44.1616 17.3168 47.0559L47.0559 17.3168Z" fill="#F2BC94"/>
<path d="M47.9998 24C47.9998 21.6805 47.6697 19.4384 47.0558 17.3168L34.9564 5.21735L23.9999 15.6522L7.17765 17.8657L11.6725 22.3606L4.65137 25.4555L17.434 38.2382L12.9664 42.7057L17.3167 47.056C19.4383 47.6698 21.6804 48 23.9999 48C37.2546 48 47.9998 37.2547 47.9998 24Z" fill="#E0945C"/>
<path d="M34.9564 42.7826H23.9998L18.7825 24L23.9998 5.21735H34.9564V42.7826Z" fill="#FFF3AD"/>
<path d="M24.0003 5.21735H13.0437V42.7826H24.0003V5.21735Z" fill="white"/>
<path d="M23.9999 7.30432L19.3042 16.6956L23.9999 26.087C29.1865 26.087 33.3912 21.8824 33.3912 16.6956C33.3912 11.5089 29.1865 7.30432 23.9999 7.30432Z" fill="#F72E12"/>
<path d="M14.6086 16.6956C14.6086 21.8824 18.8133 26.087 23.9999 26.087V7.30432C18.8132 7.30432 14.6086 11.5089 14.6086 16.6956Z" fill="#F8513A"/>
<path d="M23.9999 9.3913L20.3477 16.6956L23.9999 24C28.0339 24 31.3042 20.7297 31.3042 16.6956C31.3042 12.6616 28.0339 9.3913 23.9999 9.3913Z" fill="#FA7461"/>
<path d="M16.6958 16.6956C16.6958 20.7297 19.9661 24 24.0001 24V9.3913C19.9661 9.3913 16.6958 12.6616 16.6958 16.6956Z" fill="#FB9789"/>
<path d="M22.886 16.7702L23.9997 21.4658C25.7006 20.7531 27.1301 18.664 27.1301 16.7702C27.1301 14.8763 25.7006 12.7872 23.9997 12.0745L22.886 16.7702Z" fill="#365F2C"/>
<path d="M20.8696 16.7702C20.8696 18.664 22.2992 20.7531 24 21.4658V12.0745C22.2991 12.7872 20.8696 14.8763 20.8696 16.7702Z" fill="#63842C"/>
<path d="M24 15.6522L20.8696 21.9131L24 28.1739C27.4578 28.1739 30.2609 25.3708 30.2609 21.913C30.2609 18.4553 27.4578 15.6522 24 15.6522Z" fill="#FFE376"/>
<path d="M17.739 21.913C17.739 25.3708 20.5421 28.1739 23.9999 28.1739V15.6522C20.5421 15.6522 17.739 18.4553 17.739 21.913Z" fill="#FFF3AD"/>
<path d="M23.9999 19.826L19.3042 29.2174L23.9999 38.6087C29.1865 38.6087 33.3912 34.4041 33.3912 29.2174C33.3912 24.0306 29.1865 19.826 23.9999 19.826Z" fill="#F72E12"/>
<path d="M14.6086 29.2174C14.6086 34.4041 18.8133 38.6087 23.9999 38.6087V19.826C18.8132 19.826 14.6086 24.0306 14.6086 29.2174Z" fill="#F8513A"/>
<path d="M23.9999 21.913L20.3477 29.2174L23.9999 36.5217C28.0339 36.5217 31.3042 33.2514 31.3042 29.2174C31.3042 25.1833 28.0339 21.913 23.9999 21.913Z" fill="#FA7461"/>
<path d="M16.6958 29.2174C16.6958 33.2514 19.9661 36.5217 24.0001 36.5217V21.913C19.9661 21.913 16.6958 25.1833 16.6958 29.2174Z" fill="#FB9789"/>
<path d="M22.886 29.2919L23.9997 33.9876C25.7006 33.2749 27.1301 31.1858 27.1301 29.2919C27.1301 27.3981 25.7005 25.3089 23.9997 24.5963L22.886 29.2919Z" fill="#365F2C"/>
<path d="M20.8696 29.2919C20.8696 31.1858 22.2992 33.2749 24 33.9876V24.5963C22.2991 25.3089 20.8696 27.3981 20.8696 29.2919Z" fill="#63842C"/>
<path d="M24 28.174L20.8696 34.4349L24 40.6957C27.4578 40.6957 30.2609 37.8925 30.2609 34.4348C30.2609 30.977 27.4578 28.174 24 28.174Z" fill="#FFE376"/>
<path d="M17.739 34.4348C17.739 37.8925 20.5421 40.6957 23.9999 40.6957V28.174C20.5421 28.174 17.739 30.977 17.739 34.4348Z" fill="#FFF3AD"/>
<path d="M28.1741 33.3913H26.0872V35.4783H28.1741V33.3913Z" fill="#FFD23E"/>
<path d="M24.0001 31.3043H21.9131V33.3913H24.0001V31.3043Z" fill="#FFD23E"/>
<path d="M8.3479 25.1137L3.65234 24C4.36503 22.2991 6.45415 20.8696 8.34799 20.8696C10.2418 20.8696 12.3309 22.2991 13.0436 24L8.3479 25.1137Z" fill="#81982D"/>
<path d="M8.34799 27.1304C6.45415 27.1304 4.36503 25.7008 3.65234 24H13.0436C12.331 25.7009 10.2418 27.1304 8.34799 27.1304Z" fill="#63842C"/>
<path d="M39.3961 31.5603L41.9289 35.6682C40.2223 36.3669 37.7341 35.9006 36.395 34.5613C35.0559 33.2222 34.5895 30.7341 35.2882 29.0275L39.3961 31.5603Z" fill="#365F2C"/>
<path d="M40.8222 30.1343C42.1613 31.4734 42.6277 33.9615 41.929 35.6682L35.2883 29.0275C36.995 28.3287 39.4831 28.7951 40.8222 30.1343Z" fill="#63842C"/>
<path d="M8.60389 16.4397L6.07104 12.3319C7.77767 11.6331 10.2658 12.0995 11.6049 13.4387C12.944 14.7779 13.4104 17.2659 12.7117 18.9726L8.60389 16.4397Z" fill="#81982D"/>
<path d="M7.17775 17.8657C5.83853 16.5266 5.37222 14.0386 6.07094 12.3318L12.7116 18.9725C11.0049 19.6713 8.51687 19.2048 7.17775 17.8657Z" fill="#63842C"/>
<path d="M39.652 22.8862L44.3476 24C43.6349 25.7009 41.5458 27.1304 39.652 27.1304C37.7581 27.1304 35.669 25.7008 34.9563 24L39.652 22.8862Z" fill="#365F2C"/>
<path d="M39.652 20.8696C41.5458 20.8696 43.6349 22.2992 44.3476 24H34.9563C35.669 22.2991 37.7581 20.8696 39.652 20.8696Z" fill="#63842C"/>
</svg>
