<svg width="48" height="48" viewBox="0 0 48 48" fill="none" xmlns="http://www.w3.org/2000/svg">
<path d="M24 48C37.2548 48 48 37.2548 48 24C48 10.7452 37.2548 0 24 0C10.7452 0 0 10.7452 0 24C0 37.2548 10.7452 48 24 48Z" fill="#81C0ED"/>
<path opacity="0.2" d="M24.5842 13.601C29.9496 13.601 34.3509 12.4996 34.8037 11.096H34.8439L33.2609 39.9932H15.9069L14.3271 11.0962H14.3647C14.8176 12.4996 19.2184 13.601 24.5842 13.601Z" fill="white"/>
<path d="M14.3547 11.0511C14.8075 12.4544 19.2083 13.5565 24.5739 13.5565C24.576 13.5565 24.5777 13.5565 24.5798 13.5565C24.5817 13.5565 24.5839 13.5565 24.5855 13.5565C29.9509 13.5565 34.3522 12.4547 34.805 11.0511H34.8454C34.8454 11.0511 33.0633 38.2378 33.0633 38.7693C33.0633 39.3009 32.9699 40.4049 31.2719 40.4049C30.5399 40.4049 27.6414 40.4049 24.5798 40.4049C21.5185 40.4049 18.6198 40.4049 17.8877 40.4049C16.1895 40.4049 16.0966 39.3009 16.0966 38.7693C16.0966 38.238 14.3145 11.0511 14.3145 11.0511H14.3547Z" fill="white"/>
<path d="M24.5856 13.5565C19.22 13.5565 14.8191 12.4547 14.3659 11.0511C14.3403 10.9728 14.325 10.8931 14.325 10.8123C14.325 9.29661 18.9188 8.06799 24.5856 8.06799C30.2524 8.06799 34.846 9.29661 34.846 10.8123C34.846 10.8931 34.8306 10.9728 34.8049 11.0511C34.3521 12.4547 29.951 13.5565 24.5856 13.5565Z" fill="#E3E4E5"/>
<path d="M24.5853 24.5949C19.7934 24.5949 15.9084 22.6484 15.9084 21.3127C15.9084 19.9765 19.7936 18.8936 24.5853 18.8936C29.3778 18.8936 33.2627 19.9765 33.2627 21.3127C33.2627 22.6482 29.3775 24.5949 24.5853 24.5949Z" fill="#CF3D22"/>
<path d="M24.5736 23.7312C24.5757 23.7312 24.5776 23.7312 24.5795 23.7312C24.5814 23.7312 24.5835 23.7312 24.5852 23.7312C29.3776 23.7312 33.2625 22.6482 33.2625 21.3125C33.2625 21.3125 32.0732 37.8782 32.0732 38.2217C32.0732 38.5655 31.9942 39.2453 30.9673 39.2453C30.5001 39.2453 27.6007 39.2453 24.5793 39.2453C21.5583 39.2453 18.6587 39.2453 18.1913 39.2453C17.1648 39.2453 17.0858 38.5655 17.0858 38.2217C17.0858 37.8782 15.8962 21.3125 15.8962 21.3125C15.8965 22.6482 19.7814 23.7312 24.5736 23.7312Z" fill="#E44326"/>
</svg>
