<svg width="48" height="48" viewBox="0 0 48 48" fill="none" xmlns="http://www.w3.org/2000/svg">
<path d="M24 48C37.2548 48 48 37.2548 48 24C48 10.7452 37.2548 0 24 0C10.7452 0 0 10.7452 0 24C0 37.2548 10.7452 48 24 48Z" fill="#D95459"/>
<path d="M34.3849 10.6214L23.5225 32.6104C24.007 33.3692 24.3002 34.2673 24.3428 35.2194C24.3574 35.5433 24.3327 35.861 24.2737 36.1694C24.3454 36.4814 24.3899 36.8032 24.4046 37.1316C24.5216 39.7458 22.096 41.9722 19.564 41.9722C19.3442 41.9722 19.1296 41.9562 18.9196 41.9281L18.6155 42.5438L24.0757 47.999C37.2177 47.9583 47.8717 37.3553 47.997 24.2334L34.3849 10.6214Z" fill="#B23F47"/>
<path d="M35.8789 17.8206C35.8789 15.7264 35.3362 13.1538 34.3851 10.6214H13.6152C12.664 13.1538 12.1213 15.7265 12.1213 17.8206C12.1213 23.9947 16.832 29.067 22.8549 29.6433V40.5833H19.4194C18.787 40.5833 18.2742 41.0959 18.2742 41.7285C18.2742 42.3609 18.7869 42.8737 19.4194 42.8737H22.8549H25.1452H28.5807C29.2131 42.8737 29.7259 42.361 29.7259 41.7285C29.7259 41.0961 29.2132 40.5833 28.5807 40.5833H25.1452V29.6433C31.1683 29.067 35.8789 23.9947 35.8789 17.8206Z" fill="#ECF0F1"/>
<path d="M35.8786 17.8206C35.8786 15.7264 35.3359 13.1538 34.3848 10.6214H23.946V42.8735H25.1451H28.5805C29.213 42.8735 29.7256 42.3609 29.7256 41.7283C29.7256 41.0957 29.213 40.5831 28.5805 40.5831H25.1451V29.6431C31.168 29.067 35.8786 23.9947 35.8786 17.8206Z" fill="#DEE1E2"/>
<path d="M14.0869 18.2078C14.0869 23.6827 18.5252 28.121 24.0001 28.121C29.475 28.121 33.9133 23.6827 33.9133 18.2078H14.0869Z" fill="#79302A"/>
<path d="M23.946 18.2078V28.1197C23.9641 28.1199 23.9818 28.121 23.9999 28.121C29.4748 28.121 33.9131 23.6827 33.9131 18.2078H23.946Z" fill="#662522"/>
</svg>
